# Created by Kenney (www.kenney.nl)

mtllib tall_grass.mtl

g mergedBlocks

v 0.5 0 -0.5
v 0.5 0 0.5
v -0.5 0 -0.5
v -0.5 0 0.5
v 0.1179862 0.3647308 0
v 0.07865749 0.2314872 -0.04454545
v 0.04848748 0.1709748 0
v 0.07865749 0.2314872 0.04454545
v 0 -0.035 0
v 0.02747624 0.1831937 0
v 0.09697496 0.3769497 0
v 0.1842524 0.4432805 0.03340909
v 0.3318699 0.6306362 0
v 0.1934112 0.5160118 0
v 0.1842524 0.4432805 -0.03340909
v 0.2144224 0.5037929 0
v 0.00221336 0.1320969 -0.05043602
v -0.03427195 0.1839967 -0.09234966
v 0.01089437 0.2893589 -0.120836
v -0.00621479 0.3553057 -0.1948263
v 0.04879778 0.1784818 -0.06876503
v 0.05608752 0.3511694 -0.1771378
v 0.02998591 0.4023799 -0.2161034
v 0.00442671 0.2991937 -0.100872
v -0.0042543 0.1419317 -0.030472
v 0.05554512 0.5055662 -0.3313347
v 0.02351826 0.4122148 -0.1961394
v 0.03214401 0.1055286 0.03630149
v 0.01879455 0.1468139 0.0884198
v 0.07821711 0.2377208 0.08833364
v 0.01821494 0.1138651 0.02057085
v 0.08549494 0.1468139 0.02935838
v 0.06428803 0.2460573 0.07260299
v 0.1471599 0.2913123 0.1157976
v 0.1282189 0.3409339 0.1448026
v 0.2200079 0.4191377 0.2484636
v 0.142148 0.3325975 0.1605332
v 0.09713462 0.2913123 0.1600937
v -0.1248147 0.413831 0.158019
v -0.08832188 0.3527429 0.1676527
v -0.1989761 0.5083393 0.2763577
v -0.1344612 0.4041717 0.176529
v -0.1444231 0.3568116 0.1351585
v -0.07959288 0.2903447 0.09521047
v -0.01566111 0.1791841 0.08513639
v -0.03497318 0.132502 0.03835022
v -0.02532667 0.1421613 0.0198402
v -0.06994636 0.3000041 0.07670044
v -0.09046272 0.1846089 0.04181089
v -0.04336852 0.1557174 -0.02168426
v -0.09027471 0.2117474 0.00466598
v -0.1055301 0.3351211 -0.05276505
v -0.1797414 0.4078524 -0.05251819
v -0.05043205 0.2117474 -0.07501937
v -0.1498594 0.4078524 -0.1122822
v -0.1917852 0.4638823 -0.09589263
v -0.08673704 0.3464349 -0.04336852
v -0.0245755 0.1670312 -0.01228775
v -0.2968335 0.5813298 -0.1484167
v -0.1729922 0.4751961 -0.08649611

vn 0 1 0
vn 0.926574 -0.3323547 0.1760708
vn 0.91932 -0.2164124 -0.3286586
vn -0.7655248 0.2745876 -0.5818706
vn 0.926574 -0.3323547 -0.1760708
vn 0.7434683 -0.3988997 -0.5367812
vn -0.3533861 0.4268671 0.8324078
vn -0.3533861 0.4268671 -0.8324078
vn 0.6380336 -0.5907719 0.4938639
vn 0.6380336 -0.5907719 -0.4938639
vn 0.7892072 -0.5472962 -0.2786015
vn 0.7892072 -0.5472962 0.2786015
vn 0.7434683 -0.3988997 0.5367812
vn -0.5352926 0.3082346 -0.7864179
vn -0.5766306 0.3998795 -0.712456
vn -0.5766306 0.3998795 0.712456
vn -0.5352926 0.3082346 0.7864179
vn -0.7655248 0.2745876 0.5818706
vn -0.6999853 0.0881463 0.7086966
vn -0.6999853 0.0881463 -0.7086966
vn 0.91932 -0.2164124 0.3286586
vn 0.5590321 -0.2463686 -0.7916979
vn 0.694764 -0.4496092 -0.5613864
vn -0.08980607 -0.2867028 -0.9538011
vn -0.09294885 -0.6324828 -0.7689772
vn 0.3678964 0.3629394 0.8561118
vn 0.6753116 0.5223629 0.5206643
vn -0.3152229 -0.6711764 -0.6709371
vn 0.4265455 -0.6239681 -0.6547694
vn 0.5895396 -0.662335 -0.4623368
vn -0.879818 0.4622297 0.1107433
vn 0.5038256 0.1583616 0.8491653
vn -0.8816729 0.05941947 0.4681048
vn -0.7630062 0.2987276 0.5732219
vn -0.8988921 0.3238079 0.2951975
vn -0.824946 0.4392141 0.3557458
vn 0.5242594 0.4953176 0.6926849
vn 0.605006 0.4047602 0.6856652
vn -0.3312186 -0.4914853 -0.8054418
vn 0.05037543 -0.4103847 -0.9105201
vn 0.3942423 -0.393537 -0.8304828
vn 0.7028335 -0.4589015 0.5435387
vn -0.9902219 0.1286247 -0.05400369
vn 0.4544743 -0.4589015 0.7634544
vn -0.904771 0.3860995 -0.1797685
vn 0.138915 0.5387313 -0.830946
vn 0.04497468 -0.7316186 0.6802289
vn 0.6697844 -0.7316186 0.1269765
vn 0.3536867 0.5689648 -0.7424182
vn -0.7797689 0.5689648 0.2612267
vn -0.8416507 0.5387313 0.03731908
vn -0.8960242 0.4289882 0.1144976
vn 0.8227327 -0.5376155 0.1846085
vn 0.6312256 -0.6919564 0.3503579
vn 0.2713808 -0.6919564 0.6689909
vn 0.08367074 -0.5376155 0.8390285
vn 0.2221074 0.4289882 -0.8755783
vn -0.06893667 0.3860995 -0.9198777
vn 0.0662462 0.1286247 -0.9894782
vn 0.3539951 -0.3089985 0.8827272
vn 0.8333913 -0.3089985 0.4582346
vn 0.8451569 0.5225892 0.1122958
vn 0.07595312 -0.6649905 0.7429795
vn -0.1745418 -0.626699 0.7594627
vn -0.6166148 -0.4152482 0.6688462
vn 0.8676282 0.3663601 -0.3361571
vn -0.5326769 0.4663341 -0.706249
vn -0.1187162 0.3066425 -0.9443924
vn -0.2791982 0.06735744 -0.9578683
vn 0.958329 0.1632539 -0.2344225
vn -0.7448286 -0.2927921 0.5995858
vn -0.180349 -0.2551464 0.9499339
vn -0.3222501 -0.4001485 0.8579255
vn 0.07893374 -0.4558477 0.8865508
vn -0.4140559 0.3300951 -0.8482895
vn -0.3177876 0.4449645 -0.837268
vn 0.8607039 0.4962151 -0.1138392
vn 0.9122912 0.4063177 -0.05128952
vn -0.8058566 -0.4931688 0.3276885
vn -0.6146842 -0.6327474 0.4709501
vn -0.6996083 -0.6703457 0.2473561
vn -0.6726682 -0.23282 -0.702362
vn -0.4194061 -0.425219 -0.802052
vn -0.9654905 -0.23282 -0.1167174
vn -0.8105291 -0.5768782 -0.1012626
vn 0.9390543 0.2947117 -0.1769811
vn 0.6781382 0.4541823 -0.577795
vn -0.7695078 -0.6202764 0.1520355
vn -0.5673276 -0.5768782 -0.5876657
vn -0.3400763 -0.6202764 -0.7068276
vn -0.05535303 0.4541823 0.8891875
vn 0.9424156 0.09513653 -0.3206274
vn 0.3089474 0.09513653 0.9463089
vn 0.4218476 0.2947117 0.8574321
vn 0.1260906 0.3302928 0.9354186
vn 0.1945626 0.4262364 0.883441
vn 0.8234904 0.4262364 -0.3744145
vn 0.8239892 0.3302928 -0.4603786
vn -0.8932852 -0.425219 0.1457063
vn -0.8992674 -0.3556891 -0.2545651
vn -0.7432126 -0.3556891 -0.5666748

vt -0.5 -0.5
vt -0.5 0.5
vt 0.5 -0.5
vt 0.5 0.5
vt 0 0.3647308
vt 0.04454545 0.2314872
vt 0 0.1709748
vt -0.04454545 0.2314872
vt 0 -0.035
vt 0 0.1831937
vt 0 0.3769497
vt -0.03340909 0.4432805
vt 0.3318699 0.6306362
vt 0.1842524 0.4432805
vt 0.1934112 0.5160118
vt -0.1934112 0.5160118
vt -0.1842524 0.4432805
vt -0.3318699 0.6306362
vt 0 0.6306362
vt 0.03340909 0.4432805
vt 0 0.5037929
vt -0.09697496 0.3769497
vt -0.07865749 0.2314872
vt 0.09697496 0.3769497
vt 0.07865749 0.2314872
vt 0.02747624 0.1831937
vt -0.02747624 0.1831937
vt -0.00221336 0.1320969
vt 0.03427195 0.1839967
vt 0.09234966 0.1839967
vt 0.120836 0.2893589
vt 0.1948263 0.3553057
vt -0.04879778 0.1784818
vt -0.01089437 0.2893589
vt -0.05608752 0.3511694
vt -0.02998591 0.4023799
vt 0.00442671 0.2991937
vt 0.04879778 0.1784818
vt -0.0042543 0.1419317
vt 0.3313347 0.5055662
vt 0.1771378 0.3511694
vt 0.1961394 0.4122148
vt -0.02998591 0.2161034
vt -0.05608752 0.1771378
vt -0.05554512 0.3313347
vt 0.00621479 0.3553057
vt 0.00621479 0.1948263
vt -0.1961394 0.4122148
vt -0.1948263 0.3553057
vt -0.3313347 0.5055662
vt -0.09234966 0.1839967
vt -0.030472 0.1419317
vt -0.100872 0.2991937
vt 0.02351826 0.4122148
vt 0.05608752 0.3511694
vt -0.03630149 0.1055286
vt -0.0884198 0.1468139
vt -0.08833364 0.2377208
vt 0.02057085 0.1138651
vt 0.0884198 0.1468139
vt 0.07821711 0.2377208
vt 0.08549494 0.1468139
vt 0.03214401 0.1055286
vt 0.07260299 0.2460573
vt -0.06428803 0.2460573
vt -0.1471599 0.2913123
vt -0.1282189 0.3409339
vt -0.2200079 -0.2484636
vt -0.1471599 -0.1157976
vt -0.142148 -0.1605332
vt -0.09713462 -0.1600937
vt -0.2200079 0.4191377
vt 0.2484636 0.4191377
vt 0.1600937 0.2913123
vt 0.1448026 0.3409339
vt -0.1600937 0.2913123
vt -0.07821711 -0.08833364
vt 0.1471599 0.2913123
vt -0.08549494 0.1468139
vt -0.01821494 0.1138651
vt -0.158019 0.413831
vt -0.1676527 0.3527429
vt -0.2763577 0.5083393
vt -0.1344612 0.4041717
vt -0.1444231 0.3568116
vt -0.1989761 0.5083393
vt -0.07959288 0.2903447
vt -0.01566111 0.1791841
vt -0.03497318 0.132502
vt -0.0198402 0.1421613
vt -0.08513639 0.1791841
vt -0.07670044 0.3000041
vt 0.1989761 0.5083393
vt 0.1444231 0.3568116
vt 0.1248147 0.413831
vt 0.06994636 0.3000041
vt 0.09046272 0.1846089
vt 0.02532667 0.1421613
vt 0.03835022 0.132502
vt 0.08513639 0.1791841
vt -0.09046272 0.1846089
vt 0.09521047 0.2903447
vt 0.1676527 0.3527429
vt 0.1344612 -0.176529
vt 0.08832188 -0.1676527
vt 0.07959288 -0.09521047
vt 0.2763577 0.5083393
vt 0.176529 0.4041717
vt 0.04336852 0.1557174
vt 0.09027471 0.2117474
vt 0.1055301 0.3351211
vt 0.1797414 0.4078524
vt -0.07501937 0.2117474
vt -0.02168426 0.1557174
vt -0.05276505 0.3351211
vt -0.1122822 0.4078524
vt -0.09589263 0.4638823
vt 0.04336852 0.3464349
vt 0.07501937 0.2117474
vt 0.01228775 0.1670312
vt 0.1484167 0.5813298
vt 0.1122822 0.4078524
vt 0.08649611 0.4751961
vt -0.1484167 0.5813298
vt 0.1917852 0.4638823
vt 0.2968335 0.5813298
vt -0.1729922 0.4751961
vt -0.1797414 0.4078524
vt -0.2968335 0.5813298
vt -0.09027471 0.2117474
vt -0.0245755 0.1670312
vt -0.08673704 0.3464349
vt 0.00466598 0.2117474

usemtl Grass

f 3/3/1 2/2/1 1/1/1
f 3/3/1 4/4/1 2/2/1
f 7/7/2 6/6/2 5/5/2
f 9/9/3 7/7/3 8/8/3
f 11/11/4 6/8/4 10/10/4
f 5/5/5 8/8/5 7/7/5
f 8/8/6 5/5/6 12/12/6
f 14/15/7 12/14/7 13/13/7
f 13/18/8 15/17/8 14/16/8
f 16/21/9 15/20/9 13/19/9
f 13/19/10 12/12/10 16/21/10
f 16/21/11 12/12/11 5/5/11
f 5/5/12 15/20/12 16/21/12
f 15/20/13 5/5/13 6/6/13
f 6/23/14 11/22/14 15/17/14
f 14/16/15 15/17/15 11/22/15
f 11/24/16 12/14/16 14/15/16
f 12/14/17 11/24/17 8/25/17
f 10/10/18 8/6/18 11/11/18
f 8/25/19 10/26/19 9/9/19
f 9/9/20 10/27/20 6/23/20
f 6/6/21 7/7/21 9/9/21
f 18/29/22 17/28/22 9/9/22
f 20/32/23 19/31/23 18/30/23
f 9/9/24 17/28/24 21/33/24
f 23/36/25 22/35/25 19/34/25
f 25/39/26 21/38/26 24/37/26
f 27/42/27 22/41/27 26/40/27
f 26/45/28 22/44/28 23/43/28
f 19/34/29 20/46/29 23/36/29
f 23/43/30 20/47/30 26/45/30
f 26/50/31 20/49/31 27/48/31
f 21/38/32 25/39/32 9/9/32
f 9/9/33 25/52/33 18/51/33
f 24/53/34 18/51/34 25/52/34
f 18/51/35 24/53/35 20/49/35
f 27/48/36 20/49/36 24/53/36
f 24/37/37 22/55/37 27/54/37
f 22/55/38 24/37/38 21/38/38
f 21/33/39 19/34/39 22/35/39
f 19/34/40 21/33/40 17/28/40
f 17/28/41 18/29/41 19/34/41
f 30/58/42 29/57/42 28/56/42
f 29/60/43 31/59/43 9/9/43
f 28/63/44 32/62/44 30/61/44
f 31/59/45 29/60/45 33/64/45
f 35/67/46 34/66/46 33/65/46
f 37/70/47 34/69/47 36/68/47
f 36/68/48 38/71/48 37/70/48
f 36/72/49 34/66/49 35/67/49
f 35/75/50 38/74/50 36/73/50
f 33/64/51 38/74/51 35/75/51
f 38/74/52 33/64/52 29/60/52
f 29/57/53 30/58/53 38/76/53
f 37/70/54 38/71/54 30/77/54
f 30/77/55 34/69/55 37/70/55
f 34/78/56 30/61/56 32/62/56
f 32/79/57 33/65/57 34/66/57
f 33/65/58 32/79/58 31/80/58
f 9/9/59 31/80/59 32/79/59
f 32/62/60 28/63/60 9/9/60
f 9/9/61 28/56/61 29/57/61
f 41/83/62 40/82/62 39/81/62
f 41/86/63 43/85/63 42/84/63
f 42/84/64 43/85/64 44/87/64
f 46/89/65 45/88/65 44/87/65
f 48/92/66 45/91/66 47/90/66
f 39/95/67 43/94/67 41/93/67
f 47/98/68 49/97/68 48/96/68
f 49/97/69 47/98/69 9/9/69
f 9/9/70 47/90/70 45/91/70
f 45/100/71 46/99/71 9/9/71
f 9/9/72 46/89/72 49/101/72
f 44/87/73 49/101/73 46/89/73
f 49/101/74 44/87/74 43/85/74
f 43/94/75 48/96/75 49/97/75
f 48/96/76 43/94/76 39/95/76
f 39/81/77 40/82/77 48/92/77
f 45/91/78 48/92/78 40/82/78
f 40/103/79 44/102/79 45/100/79
f 44/106/80 40/105/80 42/104/80
f 42/108/81 40/103/81 41/107/81
f 51/110/82 50/109/82 9/9/82
f 53/112/83 52/111/83 51/110/83
f 9/9/84 50/114/84 54/113/84
f 56/117/85 55/116/85 52/115/85
f 58/120/86 54/119/86 57/118/86
f 60/123/87 55/122/87 59/121/87
f 59/124/88 55/116/88 56/117/88
f 52/111/89 53/112/89 56/125/89
f 56/125/90 53/112/90 59/126/90
f 59/129/91 53/128/91 60/127/91
f 54/119/92 58/120/92 9/9/92
f 9/9/93 58/131/93 51/130/93
f 57/132/94 51/130/94 58/131/94
f 51/130/95 57/132/95 53/128/95
f 60/127/96 53/128/96 57/132/96
f 57/118/97 55/122/97 60/123/97
f 55/122/98 57/118/98 54/119/98
f 54/113/99 52/115/99 55/116/99
f 52/115/100 54/113/100 50/114/100
f 50/114/101 51/133/101 52/115/101

