# Created by Kenney (www.kenney.nl)

mtllib tree.mtl

g mergedBlocks

v 0.5169129 1.273968 0.8829709
v 0.973826 1.359278 -0.00642599
v -0.9735501 1.37761 0.00489902
v -0.5080219 1.283616 0.8889315
v 0.01486935 2.846312 0.01325975
v 0.5067469 1.297708 -0.8919346
v -0.5181878 1.307356 -0.885974
v 0.6240962 0.6950656 1.022384
v 0.6077601 0.6937694 1.052198
v 0 2.490625 -0.00047324
v 1.244727 0.6505935 -0.00047324
v -0.6077601 0.6937694 1.052198
v -0.6240962 0.6950656 1.022384
v -1.244727 0.6505935 -0.00047324
v -0.6386304 0.6025005 -1.106614
v 0.6386304 0.6025005 -1.106614
v 0.6584146 2.065453 0.00450882
v 0.3137441 2.128129 -0.5226734
v -0.630488 2.026602 0.0164296
v -0.300019 2.109629 -0.5169969
v -0.02461967 3.334684 0.0386953
v -0.2894923 2.086654 0.5463001
v 0.3242709 2.105155 0.5406235
v -0.1392859 0 -0.2412503
v 0.1392859 0 -0.2412503
v 0.1392859 0.75 -0.2412503
v -0.1392859 0.75 -0.2412503
v 0.2785718 0 0
v 0.2785718 0.75 0
v 0.1392859 0 0.2412503
v 0.1392859 0.75 0.2412503
v -0.1392859 0 0.2412503
v -0.1392859 0.75 0.2412503
v -0.2785718 0 0
v -0.2785718 0.75 0
v 0.5 0 -0.5
v 0.5 0 0.5
v -0.5 0 -0.5
v -0.5 0 0.5

vn -0.009950031 -0.9948832 -0.1005403
vn 0.009659391 0.4863577 0.8737064
vn -0.00895656 -0.9972134 0.07406253
vn 0.7588453 0.4835883 0.4362297
vn 0.7550991 0.4926736 -0.4325484
vn -0.00027115 0.5045727 -0.8633692
vn -0.7504024 0.5074234 -0.4235774
vn -0.7441793 0.4982916 0.4448625
vn 0.7472377 0.5054843 0.4314179
vn 0 0.5054843 0.8628358
vn -0.7472377 0.5054843 0.4314179
vn -0.7472377 0.5054843 -0.4314179
vn 0 0.5054843 -0.8628358
vn 0.7472377 0.5054843 -0.4314179
vn 0 -0.9990562 0.04343722
vn 0 -0.9990562 -0.04343722
vn 0.02858703 -0.9902385 -0.1364194
vn -0.8016724 0.363232 0.4747461
vn 0.03085763 -0.9951942 0.09293152
vn -0.00280656 0.3772641 0.9261015
vn 0.7869769 0.4111186 0.460053
vn 0.7778946 0.4309411 -0.4573509
vn -0.02097131 0.416909 -0.9087063
vn -0.8107548 0.3830545 -0.4426578
vn 0 0 -1
vn 0.8660254 0 -0.5
vn 0.8660254 0 0.5
vn 0 0 1
vn -0.8660254 0 0.5
vn -0.8660254 0 -0.5
vn 0 1 0

vt -0.5169129 -0.8829709
vt -0.973826 0.00642599
vt 0.9735501 -0.00489902
vt 0.5080219 -0.8889315
vt 0.5169129 1.273968
vt -0.5080219 1.283616
vt 0.01486935 2.846312
vt -0.5067469 0.8919346
vt 0.5181878 0.885974
vt 0.00642599 1.359278
vt -0.8829709 1.273968
vt -0.01325975 2.846312
vt 0.8919346 1.297708
vt -0.01486935 2.846312
vt 0.5181878 1.307356
vt -0.5067469 1.297708
vt 0.01325975 2.846312
vt 0.00489902 1.37761
vt -0.885974 1.307356
vt 0.8889315 1.283616
vt -1.022384 0.6950656
vt -1.052198 0.6937694
vt 0.00047324 2.490625
vt 0.00047324 0.6505935
vt 0.6077601 0.6937694
vt -0.6077601 0.6937694
vt 0 2.490625
vt -0.00047324 2.490625
vt 1.052198 0.6937694
vt 1.022384 0.6950656
vt -0.00047324 0.6505935
vt -1.106614 0.6025005
vt 0.6386304 0.6025005
vt -0.6386304 0.6025005
vt 1.106614 0.6025005
vt -0.6240962 -1.022384
vt -1.244727 0.00047324
vt -0.6386304 1.106614
vt 1.244727 0.00047324
vt 0.6386304 1.106614
vt 0.6240962 -1.022384
vt 0.6077601 -1.052198
vt -0.6077601 -1.052198
vt -0.6584146 -0.00450882
vt -0.3137441 0.5226734
vt 0.630488 -0.0164296
vt 0.300019 0.5169969
vt 0.0386953 3.334684
vt 0.5463001 2.086654
vt 0.0164296 2.026602
vt 0.2894923 -0.5463001
vt -0.3242709 -0.5406235
vt 0.3242709 2.105155
vt -0.2894923 2.086654
vt -0.02461967 3.334684
vt -0.00450882 2.065453
vt -0.5406235 2.105155
vt -0.0386953 3.334684
vt 0.5226734 2.128129
vt 0.02461967 3.334684
vt 0.300019 2.109629
vt -0.3137441 2.128129
vt -0.5169969 2.109629
vt 0.1392859 0
vt -0.1392859 0
vt -0.1392859 0.75
vt 0.1392859 0.75
vt 0.2412503 0
vt 0 0
vt 0 0.75
vt 0.2412503 0.75
vt -0.2412503 0
vt -0.2412503 0.75
vt -0.5 -0.5
vt -0.5 0.5
vt 0.5 -0.5
vt 0.5 0.5

usemtl Pine_Leaves

f 3/3/1 2/2/1 1/1/1
f 4/4/1 3/3/1 1/1/1
f 5/7/2 4/6/2 1/5/2
f 3/3/3 6/8/3 2/2/3
f 3/3/3 7/9/3 6/8/3
f 5/12/4 1/11/4 2/10/4
f 2/10/5 6/13/5 5/12/5
f 6/16/6 7/15/6 5/14/6
f 7/19/7 3/18/7 5/17/7
f 3/18/8 4/20/8 5/17/8
f 10/23/9 9/22/9 8/21/9
f 8/21/9 11/24/9 10/23/9
f 10/27/10 12/26/10 9/25/10
f 13/30/11 12/29/11 10/28/11
f 10/28/11 14/31/11 13/30/11
f 15/32/12 14/31/12 10/28/12
f 16/34/13 15/33/13 10/27/13
f 11/24/14 16/35/14 10/23/14
f 16/38/15 11/37/15 8/36/15
f 14/39/15 16/38/15 8/36/15
f 14/39/15 15/40/15 16/38/15
f 8/36/15 13/41/15 14/39/15
f 13/41/16 9/43/16 12/42/16
f 13/41/16 8/36/16 9/43/16
f 19/46/17 18/45/17 17/44/17
f 19/46/17 20/47/17 18/45/17
f 19/50/18 22/49/18 21/48/18
f 19/46/19 23/52/19 22/51/19
f 19/46/19 17/44/19 23/52/19
f 21/55/20 22/54/20 23/53/20
f 21/58/21 23/57/21 17/56/21
f 17/56/22 18/59/22 21/58/22
f 18/62/23 20/61/23 21/60/23
f 20/63/24 19/50/24 21/48/24

usemtl Wood_Dark

f 26/66/25 25/65/25 24/64/25
f 27/67/25 26/66/25 24/64/25
f 29/70/26 28/69/26 25/68/26
f 26/71/26 29/70/26 25/68/26
f 31/73/27 30/72/27 28/69/27
f 29/70/27 31/73/27 28/69/27
f 33/66/28 32/65/28 30/64/28
f 31/67/28 33/66/28 30/64/28
f 35/70/29 34/69/29 32/68/29
f 33/71/29 35/70/29 32/68/29
f 27/73/30 24/72/30 34/69/30
f 35/70/30 27/73/30 34/69/30

usemtl Grass

f 38/76/31 37/75/31 36/74/31
f 38/76/31 39/77/31 37/75/31

