# Created by Kenney (www.kenney.nl)

mtllib waterfall.mtl

g mergedBlocks

v -0.4999938 -1.192093E-07 1.500006
v -0.9999958 -0.1500002 1.500006
v -0.9999962 -0.1500002 -0.5000021
v -0.4999942 -1.192093E-07 -0.5000021
v -2 -0.8500001 1.500006
v -2 -0.8500001 -0.500002
v -2.500002 -1 1.500006
v -2.500002 -1 -0.5000019
v 0.5 -5.960464E-08 0.5
v -0.5 -5.960464E-08 0.5
v -0.5 -5.960464E-08 -0.5
v 0.5 -5.960464E-08 -0.5
v 0.5 -5.960464E-08 1.5
v -0.5 -5.960464E-08 1.5

vn -0.287349 0.9578264 3.425467E-08
vn -0.5734647 0.8192319 6.836231E-08
vn 0 1 0

vt 2.5 1.5
vt 2.5 1
vt 0.5 1
vt 0.5 1.5
vt 2.5 0
vt 0.5 0
vt 2.5 -0.5
vt 0.5 -0.5
vt -0.5 1.5
vt 0.5 0.5
vt -0.5 0.5

usemtl Water

f 3/3/1 2/2/1 1/1/1
f 4/4/1 3/3/1 1/1/1
f 3/3/2 5/5/2 2/2/2
f 3/3/2 6/6/2 5/5/2
f 8/8/1 7/7/1 5/5/1
f 6/6/1 8/8/1 5/5/1
f 11/10/3 10/4/3 9/9/3
f 12/11/3 11/10/3 9/9/3
f 10/10/3 14/4/3 13/9/3
f 9/11/3 10/10/3 13/9/3

