<?xml version="1.0" encoding="UTF-8" standalone="no"?><svg width="151.153" height="181.36" xmlns="http://www.w3.org/2000/svg"><style><![CDATA[@import url("https://fonts.googleapis.com/css?family=IM+Fell+Great+Primer");]]></style><rect x="0" y="0" width="151.153" height="181.36" id="background" fill="#FFFFFF"/><g id="map" transform="translate(69.473 94.769)"><g id="waterbody"><polygon points="-253.355,-301.737 -206.527,-335.429 -169.446,-300.979 -156.462,-256.168 -106.954,-209.781 -105.311,-162.242 -92.569,-130.851 -76.634,-104.696 -50.573,-89.526 -50.956,-63.653 -44.44,-41.88 -52.278,-15.493 -57.894,10.602 -51.667,25.131 -50.598,37.249 -54.737,51.481 -55.996,79.773 -63.706,115.822 -70.109,136.982 -55.472,167.255 -74.128,221.296 -98.154,260.202 -113.753,279.952 -137.665,295.352 -202.041,278.041 -269.888,240.051 -289.686,217.498 -299.389,211.793 -337.521,197.646 -393.833,151.38 -423.198,114.431 -402.689,61.861 -406.261,25.344 -448.799,-41.902 -448.48,-65.957 -410.6,-99.133 -367.243,-161.331 -340.015,-189.651 -326.217,-226.958 -283.359,-279.997" fill="#888888" stroke="#000000" stroke-width="0.292"/></g><g fill="none"><polyline points="2.115,-62.779 15.344,-78.974 18.623,-86.045 20.349,-89.649 21.615,-92.142 22.785,-94.31 23.859,-96.154 24.959,-97.934 26.084,-99.652 27.235,-101.306 28.411,-102.898 29.642,-104.538 30.926,-106.228 32.264,-107.967 33.656,-109.754 35.101,-111.59 36.601,-113.476 38.154,-115.41 39.762,-117.393 41.303,-119.457 42.779,-121.6 44.19,-123.824 45.535,-126.129 46.814,-128.513 48.028,-130.978 49.176,-133.523 50.258,-136.149 51.145,-139.053 51.837,-142.235 52.333,-145.697 52.634,-149.438 52.739,-153.457 52.649,-157.755 52.363,-162.332 51.882,-167.187 51.495,-171.902 51.204,-176.475 51.009,-180.908 50.908,-185.199 50.902,-189.35 50.992,-193.359 51.177,-197.228 51.457,-200.955 51.746,-204.913 52.043,-209.1 52.35,-213.517 52.665,-218.163 52.989,-223.04 53.322,-228.146 53.664,-233.482 54.015,-239.048 54.145,-244.874 54.054,-250.96 53.742,-257.306 53.21,-263.912 52.458,-270.779 51.484,-277.905 50.29,-285.292 48.875,-292.939 47.501,-301.326 46.168,-310.454 44.877,-320.322 43.626,-330.931 42.417,-342.281 41.249,-354.371 40.122,-367.201 39.036,-380.772 38.458,-394.397 38.386,-408.076 38.822,-421.808 39.764,-435.595 41.586,-451.186 44.285,-468.58 48.977,-493.03 59.005,-540.286" stroke="#888888" stroke-width="2.292" stroke-linejoin="round" stroke-linecap="butt"/><polyline points="2.115,-62.779 15.344,-78.974 18.623,-86.045 20.349,-89.649 21.615,-92.142 22.785,-94.31 23.859,-96.154 24.959,-97.934 26.084,-99.652 27.235,-101.306 28.411,-102.898 29.642,-104.538 30.926,-106.228 32.264,-107.967 33.656,-109.754 35.101,-111.59 36.601,-113.476 38.154,-115.41 39.762,-117.393 41.303,-119.457 42.779,-121.6 44.19,-123.824 45.535,-126.129 46.814,-128.513 48.028,-130.978 49.176,-133.523 50.258,-136.149 51.145,-139.053 51.837,-142.235 52.333,-145.697 52.634,-149.438 52.739,-153.457 52.649,-157.755 52.363,-162.332 51.882,-167.187 51.495,-171.902 51.204,-176.475 51.009,-180.908 50.908,-185.199 50.902,-189.35 50.992,-193.359 51.177,-197.228 51.457,-200.955 51.746,-204.913 52.043,-209.1 52.35,-213.517 52.665,-218.163 52.989,-223.04 53.322,-228.146 53.664,-233.482 54.015,-239.048 54.145,-244.874 54.054,-250.96 53.742,-257.306 53.21,-263.912 52.458,-270.779 51.484,-277.905 50.29,-285.292 48.875,-292.939 47.501,-301.326 46.168,-310.454 44.877,-320.322 43.626,-330.931 42.417,-342.281 41.249,-354.371 40.122,-367.201 39.036,-380.772 38.458,-394.397 38.386,-408.076 38.822,-421.808 39.764,-435.595 41.586,-451.186 44.285,-468.58 48.977,-493.03 59.005,-540.286" stroke="#FFFFFF" stroke-width="1.708" stroke-linejoin="round" stroke-linecap="round"/></g><g fill="none"><polyline points="35.193,40.917 50.025,58.052 56.216,63.874 59.674,66.699 62.463,68.466 65.269,69.823 68.094,70.769 71.166,71.521 74.485,72.077 78.052,72.439 81.867,72.607 85.611,72.961 89.284,73.504 92.886,74.233 96.418,75.15 99.879,76.255 103.269,77.547 106.589,79.026 109.838,80.693 113.234,82.667 116.777,84.948 120.467,87.537 124.304,90.432 128.288,93.635 132.419,97.145 136.697,100.963 141.122,105.087 145.601,109.166 150.136,113.199 154.725,117.185 159.37,121.126 164.069,125.022 168.823,128.871 173.632,132.674 178.496,136.431 182.965,140.401 187.039,144.583 190.719,148.976 194.005,153.582 196.895,158.4 199.391,163.43 201.493,168.672 203.2,174.127 204.895,179.477 206.578,184.722 208.249,189.864 209.908,194.901 211.555,199.834 213.19,204.662 214.814,209.386 216.425,214.006 219.672,218.227 224.554,222.048 231.072,225.47 239.225,228.492 250.851,231.293 265.949,233.873 290.03,236.765 339.627,241.573" stroke="#888888" stroke-width="2.292" stroke-linejoin="round" stroke-linecap="butt"/><polyline points="35.193,40.917 50.025,58.052 56.216,63.874 59.674,66.699 62.463,68.466 65.269,69.823 68.094,70.769 71.166,71.521 74.485,72.077 78.052,72.439 81.867,72.607 85.611,72.961 89.284,73.504 92.886,74.233 96.418,75.15 99.879,76.255 103.269,77.547 106.589,79.026 109.838,80.693 113.234,82.667 116.777,84.948 120.467,87.537 124.304,90.432 128.288,93.635 132.419,97.145 136.697,100.963 141.122,105.087 145.601,109.166 150.136,113.199 154.725,117.185 159.37,121.126 164.069,125.022 168.823,128.871 173.632,132.674 178.496,136.431 182.965,140.401 187.039,144.583 190.719,148.976 194.005,153.582 196.895,158.4 199.391,163.43 201.493,168.672 203.2,174.127 204.895,179.477 206.578,184.722 208.249,189.864 209.908,194.901 211.555,199.834 213.19,204.662 214.814,209.386 216.425,214.006 219.672,218.227 224.554,222.048 231.072,225.47 239.225,228.492 250.851,231.293 265.949,233.873 290.03,236.765 339.627,241.573" stroke="#FFFFFF" stroke-width="1.708" stroke-linejoin="round" stroke-linecap="round"/></g><g fill="none"><polyline points="15.162,72.16 17.673,84.117 19.05,90.185 20.129,94.351 21.19,97.943 22.233,100.96 23.35,103.846 24.542,106.601 25.809,109.225 27.15,111.717 28.448,114.301 29.703,116.979 30.915,119.749 32.084,122.612 33.209,125.567 34.292,128.616 35.332,131.756 36.328,134.99 37.539,138.268 38.964,141.591 40.604,144.959 42.458,148.372 44.526,151.829 46.808,155.331 49.305,158.878 52.016,162.47 54.781,166.343 57.599,170.496 60.471,174.929 63.397,179.643 66.376,184.638 69.409,189.914 72.496,195.47 75.637,201.307 78.672,207.087 81.603,212.812 84.428,218.48 87.149,224.091 89.764,229.647 92.275,235.146 94.681,240.589 96.981,245.975 99.806,252.51 103.154,260.194 107.026,269.026 111.422,279.006 117.154,291.957 124.22,307.878 135.056,332.235 156.964,381.423" stroke="#888888" stroke-width="2.292" stroke-linejoin="round" stroke-linecap="butt"/><polyline points="15.162,72.16 17.673,84.117 19.05,90.185 20.129,94.351 21.19,97.943 22.233,100.96 23.35,103.846 24.542,106.601 25.809,109.225 27.15,111.717 28.448,114.301 29.703,116.979 30.915,119.749 32.084,122.612 33.209,125.567 34.292,128.616 35.332,131.756 36.328,134.99 37.539,138.268 38.964,141.591 40.604,144.959 42.458,148.372 44.526,151.829 46.808,155.331 49.305,158.878 52.016,162.47 54.781,166.343 57.599,170.496 60.471,174.929 63.397,179.643 66.376,184.638 69.409,189.914 72.496,195.47 75.637,201.307 78.672,207.087 81.603,212.812 84.428,218.48 87.149,224.091 89.764,229.647 92.275,235.146 94.681,240.589 96.981,245.975 99.806,252.51 103.154,260.194 107.026,269.026 111.422,279.006 117.154,291.957 124.22,307.878 135.056,332.235 156.964,381.423" stroke="#FFFFFF" stroke-width="1.708" stroke-linejoin="round" stroke-linecap="round"/></g><g fill="none"><polyline points="53.719,-13.413 68.067,3.444 75.124,6.582 78.949,8.267 81.893,9.544 84.741,10.763 87.492,11.923 90.409,13.14 93.491,14.415 96.739,15.747 100.151,17.136 103.721,18.303 107.447,19.247 111.33,19.968 115.37,20.467 119.567,20.743 123.92,20.796 128.431,20.627 133.098,20.234 137.843,19.534 142.664,18.524 147.564,17.206 152.54,15.578 157.594,13.643 162.725,11.398 167.933,8.845 173.219,5.983 178.262,3.122 183.062,0.26 187.619,-2.601 191.933,-5.461 196.005,-8.322 199.833,-11.182 203.419,-14.041 206.762,-16.901 210.356,-19.473 214.201,-21.757 218.298,-23.753 222.646,-25.462 227.245,-26.882 232.095,-28.016 237.196,-28.861 242.549,-29.419 247.934,-29.549 253.353,-29.251 258.805,-28.525 264.289,-27.372 269.807,-25.79 275.357,-23.781 280.941,-21.344 286.557,-18.479 292.396,-17.274 298.457,-17.729 304.74,-19.844 311.246,-23.619 318.898,-30.356 327.697,-40.055 340.416,-56.621 365.374,-91.77" stroke="#888888" stroke-width="2.292" stroke-linejoin="round" stroke-linecap="butt"/><polyline points="53.719,-13.413 68.067,3.444 75.124,6.582 78.949,8.267 81.893,9.544 84.741,10.763 87.492,11.923 90.409,13.14 93.491,14.415 96.739,15.747 100.151,17.136 103.721,18.303 107.447,19.247 111.33,19.968 115.37,20.467 119.567,20.743 123.92,20.796 128.431,20.627 133.098,20.234 137.843,19.534 142.664,18.524 147.564,17.206 152.54,15.578 157.594,13.643 162.725,11.398 167.933,8.845 173.219,5.983 178.262,3.122 183.062,0.26 187.619,-2.601 191.933,-5.461 196.005,-8.322 199.833,-11.182 203.419,-14.041 206.762,-16.901 210.356,-19.473 214.201,-21.757 218.298,-23.753 222.646,-25.462 227.245,-26.882 232.095,-28.016 237.196,-28.861 242.549,-29.419 247.934,-29.549 253.353,-29.251 258.805,-28.525 264.289,-27.372 269.807,-25.79 275.357,-23.781 280.941,-21.344 286.557,-18.479 292.396,-17.274 298.457,-17.729 304.74,-19.844 311.246,-23.619 318.898,-30.356 327.697,-40.055 340.416,-56.621 365.374,-91.77" stroke="#FFFFFF" stroke-width="1.708" stroke-linejoin="round" stroke-linecap="round"/></g><g fill="#CCCCCC" stroke="#000000" stroke-width="0.292"><polygon points="-0.357,10.503 -2.33,12.259 -5.338,5.316 -3.037,4.319"/><polygon points="2.731,6.394 3.157,7.377 -0.357,10.503 -1.368,8.17"/><polygon points="1.062,2.543 4.493,1.056 5.936,4.905 3.157,7.377"/><polygon points="-2.706,-1.812 -0.522,3.229 -5.338,5.316 -7.816,-0.402"/><polygon points="-7.816,-0.402 -8.804,-2.684 -3.536,-3.728"/><polygon points="-3.536,-3.728 2.269,-4.879 4.493,1.056 -0.522,3.229"/><polygon points="2.269,-4.879 12.095,-6.826 8.674,-0.311"/><polygon points="7.236,-1.337 8.674,-0.311 5.936,4.905 4.045,-0.141"/></g><g fill="#CCCCCC" stroke="#000000" stroke-width="0.292"><polygon points="-14.413,3.202 -17.424,6.088 -24.049,2.764 -19.7,-1.315"/><polygon points="-16.18,0.64 -19.113,-1.866 -16.805,-4.031 -14.181,-1.234"/><polygon points="-14.181,-1.234 -12.101,0.984 -13.833,2.645 -16.18,0.64"/><polygon points="-16.805,-4.031 -12.889,-7.704 -10.897,-2.483 -10.189,-0.849 -12.101,0.984"/><polygon points="-12.129,8.745 -16.665,6.469 -9.849,-0.066 -6.996,6.52"/><polygon points="-6.996,6.52 -4.338,12.654 -12.129,8.745"/></g><g fill="#CCCCCC" stroke="#000000" stroke-width="0.292"><polygon points="-1.377,-15.597 -4.156,-20.03 7.599,-24.444 9.349,-19.133"/><polygon points="10.752,-14.879 11.691,-12.028 6.007,-10.154 5.067,-13.005"/><polygon points="6.414,-18.165 9.349,-19.133 10.752,-14.879 7.816,-13.911"/><polygon points="5.192,-12.626 6.007,-10.154 2.717,-9.07 1.293,-11.341"/><polygon points="1.293,-11.341 -1.377,-15.597 3.665,-17.259 5.192,-12.626"/><polygon points="9.35,-7.098 4.55,-6.146 2.717,-9.07 8.113,-10.848"/><polygon points="8.113,-10.848 11.691,-12.028 13.073,-7.836 9.35,-7.098"/><polygon points="-5.736,-16.797 -3.72,-17.828 -1.455,-14.216 -3.804,-13.016"/><polygon points="-8.185,-15.546 -9.459,-18.039 -4.921,-19.743 -3.72,-17.828"/><polygon points="-6.253,-11.765 -8.862,-10.432 -13.684,-16.453 -9.459,-18.039"/><polygon points="-8.862,-10.432 -11.312,-9.18 -13.684,-16.453"/><polygon points="-4.66,-4.321 -9.12,-3.437 -11.312,-9.18 -8.006,-10.869"/><polygon points="-4.66,-4.321 -8.006,-10.869 -1.455,-14.216 1.854,-8.94"/><polygon points="0.383,-7.896 1.854,-8.94 3.71,-5.98 0.874,-5.418"/><polygon points="0.874,-5.418 -4.66,-4.321 0.383,-7.896"/></g><g fill="#888888"><polygon points="22.282,-9.797 23.042,-10.089 23.801,-10.381 24.427,-10.455 24.918,-10.313 25.276,-9.953 25.499,-9.376 25.589,-8.582 25.544,-7.571 25.366,-6.342 25.053,-4.896 24.74,-3.45 24.428,-2.005 24.115,-0.559 23.802,0.887 23.49,2.333 23.177,3.778 22.864,5.224 22.551,6.67 22.171,7.887 21.724,8.875 21.209,9.635 20.627,10.166 19.978,10.468 19.261,10.542 18.477,10.387 17.626,10.003 16.775,9.619 15.924,9.235 15.072,8.851 14.221,8.467 13.37,8.083 12.518,7.699 11.667,7.315 10.816,6.931 10.121,6.499 9.584,6.019 9.203,5.49 8.98,4.913 8.913,4.288 9.004,3.614 9.251,2.893 9.656,2.123 10.06,1.353 10.464,0.582 10.868,-0.188 11.273,-0.958 11.677,-1.728 12.081,-2.498 12.486,-3.268 12.89,-4.038 13.339,-4.748 13.832,-5.399 14.369,-5.989 14.951,-6.52 15.578,-6.991 16.249,-7.403 16.964,-7.754 17.724,-8.046 18.483,-8.338 19.243,-8.63 20.003,-8.922 20.762,-9.213 21.522,-9.505"/></g><g fill="#CCCCCC" stroke="#000000" stroke-width="0.292"><polygon points="3.132,10.076 7.408,6.272 10.377,7.611 8.229,12.375"/><polygon points="3.16,15.034 -0.627,13.42 3.132,10.076 5.013,10.925"/><polygon points="5.013,10.925 8.229,12.375 6.405,16.418 3.16,15.034"/><polygon points="9.318,9.958 10.377,7.611 18.194,11.137 17.136,13.484"/><polygon points="11.159,18.444 6.405,16.418 9.318,9.958 14.028,12.082"/><polygon points="14.028,12.082 17.136,13.484 14.296,19.782 11.159,18.444"/><polygon points="18.401,17.44 16.548,20.742 14.296,19.782 15.867,16.297"/><polygon points="15.867,16.297 18.194,11.137 21.181,12.483 18.401,17.44"/><polygon points="13.764,20.425 16.155,21.444 12.764,27.488 10.511,26.224"/><polygon points="10.511,26.224 5.075,23.175 7.997,17.966 13.764,20.425"/><polygon points="9.228,28.072 7.07,31.918 2.668,27.464 3.979,25.128"/><polygon points="10.323,26.119 12.764,27.488 9.117,33.989 7.07,31.918"/><polygon points="2.668,27.464 -1.24,23.51 -1.676,14.354 -1.287,14.008 7.997,17.966"/></g><g fill="#CCCCCC" stroke="#000000" stroke-width="0.292"><polygon points="-16.296,7.549 -18.646,14.917 -21.285,13.593"/><polygon points="-19.588,5.897 -16.296,7.549 -21.285,13.593 -23.014,12.725"/><polygon points="-21.242,9.193 -23.014,12.725 -28.007,10.22 -26.226,6.693"/><polygon points="-26.226,6.693 -24.563,3.401 -19.588,5.897 -21.242,9.193"/><polygon points="-29.828,13.824 -28.007,10.22 -24.452,12.004 -26.263,15.613"/><polygon points="-26.263,15.613 -27.591,18.26 -30.872,15.892 -29.828,13.824"/><polygon points="-24.452,12.004 -18.646,14.917 -21.187,22.882 -27.591,18.26"/><polygon points="-19.482,20.17 -18.284,16.414 -12.387,19.723 -14.277,23.091"/><polygon points="-16.935,21.599 -14.277,23.091 -16.185,26.491 -18.673,24.695"/><polygon points="-18.673,24.695 -20.504,23.374 -19.482,20.17 -16.935,21.599"/><polygon points="-12.387,19.723 -4.988,23.875 -14.872,27.439 -16.185,26.491"/><polygon points="-3.509,17.915 -3.254,23.25 -3.993,23.516 -8.9,20.762 -5.577,16.356"/><polygon points="-5.577,16.356 -3.702,13.868 -3.509,17.915"/><polygon points="-14.968,17.357 -18.036,15.636 -15.572,7.912 -11.304,10.054"/><polygon points="-11.622,19.235 -14.968,17.357 -11.304,10.054 -7.878,11.773"/><polygon points="-10.185,20.041 -11.622,19.235 -10.03,16.063 -8.559,16.801"/><polygon points="-8.559,16.801 -6.639,17.764 -8.9,20.762 -10.185,20.041"/><polygon points="-9.417,14.841 -7.878,11.773 -3.702,13.868 -5.803,16.655"/></g><g fill="#CCCCCC" stroke="#000000" stroke-width="0.292"><polygon points="-32.827,-13.442 -26.853,-18.164 -21.15,-12.595 -26.856,-7.166"/><polygon points="-26.856,-7.166 -31.282,-2.956 -38.593,-8.885 -32.827,-13.442"/><polygon points="-27.235,0.326 -30.655,-2.448 -27.202,-5.733 -24.192,-2.569"/><polygon points="-24.192,-2.569 -21.994,-0.26 -24.759,2.334 -27.235,0.326"/><polygon points="-27.202,-5.733 -20.577,-12.036 -15.12,-6.708 -21.994,-0.26"/><polygon points="-15.711,-21.31 -15.746,-16.326 -20.941,-13.509 -26.221,-18.664 -18.465,-24.794"/><polygon points="-18.465,-24.794 -15.671,-27.003 -15.711,-21.31"/><polygon points="-17.976,-10.614 -20.941,-13.509 -15.746,-16.326 -14.498,-12.5"/><polygon points="-14.498,-12.5 -13.197,-8.511 -14.536,-7.256 -17.976,-10.614"/></g><g fill="#CCCCCC" stroke="#000000" stroke-width="0.292"><polygon points="-7.473,-24.036 -10.849,-31.025 -4.826,-27.268"/><polygon points="-4.826,-27.268 1.117,-22.865 -5.675,-20.314 -7.473,-24.036"/><polygon points="-10.427,-28.312 -9.3,-25.98 -13.693,-23.858 -13.673,-26.744"/><polygon points="-13.673,-26.744 -13.664,-27.999 -11.681,-30.908 -10.427,-28.312"/><polygon points="-12.67,-24.352 -9.3,-25.98 -6.427,-20.032 -10.477,-18.511"/><polygon points="-13.716,-20.526 -13.693,-23.858 -12.67,-24.352 -11.54,-21.343"/><polygon points="-11.54,-21.343 -10.477,-18.511 -13.739,-17.286 -13.716,-20.526"/><polygon points="-9.105,-34.688 -8.024,-36.275 -5.535,-34.579 -6.617,-32.992"/><polygon points="-7.603,-31.545 -8.369,-30.421 -10.926,-32.016 -10.091,-33.241"/><polygon points="-10.091,-33.241 -9.105,-34.688 -6.617,-32.992 -7.603,-31.545"/><polygon points="-8.024,-36.275 -7.033,-37.728 -4.619,-35.923 -5.535,-34.579"/><polygon points="-2.984,-29.148 -4.141,-27.756 -4.375,-27.93 -8.369,-30.421 -7.254,-32.058"/><polygon points="-5.153,-30.626 -7.254,-32.058 -4.619,-35.923 -2.182,-34.1"/><polygon points="-3.192,-32.919 -2.182,-34.1 0.104,-32.864 -1.216,-31.276"/><polygon points="-1.216,-31.276 -2.984,-29.148 -5.153,-30.626 -3.192,-32.919"/><polygon points="-4.934,-37.157 -6.582,-38.39 -4.301,-41.736 -2.602,-40.578"/><polygon points="-2.602,-40.578 -0.536,-39.17 -2.929,-35.658 -4.934,-37.157"/><polygon points="-4.301,-41.736 -3.216,-43.33 0.865,-41.226 -0.536,-39.17"/><polygon points="-0.751,-34.236 -1.75,-34.776 -2.929,-35.658 -0.688,-38.947 1.461,-37.482"/><polygon points="1.461,-37.482 3.044,-36.403 0.625,-33.492 -0.751,-34.236"/><polygon points="-0.688,-38.947 0.865,-41.226 5.197,-38.994 3.044,-36.403"/><polygon points="-1.006,-25.433 -3.497,-27.279 -1.208,-30.034 1.173,-28.056"/><polygon points="1.173,-28.056 3.96,-25.74 2.009,-23.2 -1.006,-25.433"/><polygon points="-1.208,-30.034 2.717,-34.757 7.702,-30.615 3.96,-25.74"/><polygon points="7.702,-30.615 7.46,-25.247 2.009,-23.2"/><polygon points="4.617,-37.045 5.925,-38.618 8.015,-37.541 6.722,-35.624"/><polygon points="6.722,-35.624 4.908,-32.937 2.717,-34.757 4.617,-37.045"/><polygon points="8.015,-37.541 7.702,-30.615 4.908,-32.937"/></g><g fill="#CCCCCC" stroke="#000000" stroke-width="0.292"><polygon points="19.061,-38.921 23.455,-39.559 24.885,-25.347 20.437,-25.26"/><polygon points="8.587,-32.477 8.811,-37.431 19.061,-38.921 19.598,-33.586"/><polygon points="14.117,-25.136 8.251,-25.02 8.587,-32.477 13.33,-32.955"/><polygon points="12.599,-11.831 11.875,-14.025 16.897,-15.681 17.621,-13.486"/><polygon points="17.621,-13.486 18.597,-10.524 13.655,-8.626 12.599,-11.831"/><polygon points="16.897,-15.681 19.884,-16.665 21.536,-11.653 18.597,-10.524"/><polygon points="19.884,-16.665 25.57,-18.54 26.088,-13.402 21.536,-11.653"/><polygon points="25.41,-20.13 25.57,-18.54 22.729,-17.603 22.24,-19.085"/><polygon points="22.24,-19.085 21.303,-21.929 25.103,-23.181 25.41,-20.13"/><polygon points="21.303,-21.929 20.79,-23.485 24.885,-25.347 25.103,-23.181"/><polygon points="17.384,-20.182 18.675,-16.266 11.875,-14.025 10.585,-17.941"/><polygon points="16.334,-23.366 17.384,-20.182 10.585,-17.941 9.535,-21.124"/><polygon points="8.785,-23.4 8.251,-25.02 11.268,-25.08 11.524,-24.303"/><polygon points="11.524,-24.303 12.274,-22.027 9.535,-21.124 8.785,-23.4"/></g><g fill="#CCCCCC" stroke="#000000" stroke-width="0.292"><polygon points="42.284,9.766 43.042,15.819 37.137,14.73 38.192,9.012"/><polygon points="38.192,9.012 39.171,3.698 41.58,4.143 42.284,9.766"/><polygon points="34.812,10.48 37.819,11.034 37.137,14.73 34.131,14.176"/><polygon points="34.131,14.176 31.915,13.767 32.597,10.071 34.812,10.48"/><polygon points="25.713,7.468 32.835,8.781 31.915,13.767 24.794,12.454"/><polygon points="25.294,9.743 24.794,12.454 22.222,11.98 22.805,9.284"/><polygon points="22.805,9.284 23.294,7.022 25.713,7.468 25.294,9.743"/><polygon points="26.029,7.527 23.294,7.022 24.594,1.011 27.144,1.481"/><polygon points="39.976,-8.66 41.58,4.143 36.155,3.142"/><polygon points="29.052,1.833 24.594,1.011 26.708,-8.765 31.136,-7.807"/><polygon points="26.708,-8.765 27.356,-11.762 39.976,-8.66 39.14,-6.076"/><polygon points="35.765,-9.695 27.356,-11.762 34.997,-13.362"/><polygon points="34.997,-13.362 39.275,-14.257 39.976,-8.66 35.765,-9.695"/></g><g fill="#CCCCCC" stroke="#000000" stroke-width="0.292"><polygon points="6.221,38.982 8.825,39.096 7.703,48.076 5.126,47.746"/><polygon points="5.788,42.445 5.126,47.746 -1.503,46.9 -1.293,42.133"/><polygon points="2.155,39.86 2.048,42.281 -1.293,42.133 -1.186,39.713"/><polygon points="-1.186,39.713 -1.14,38.657 2.202,38.805 2.155,39.86"/><polygon points="8.825,39.096 11.123,48.512 7.703,48.076"/><polygon points="6.157,33.838 7.995,35.698 8.825,39.096 4.797,38.919"/><polygon points="1.111,38.757 -1.14,38.657 -0.998,35.429 -0.518,33.544 1.337,33.626"/><polygon points="-0.518,33.544 0.791,28.409 6.157,33.838"/><polygon points="-2.046,41.049 -2.299,46.798 -10.418,45.761 -10.194,40.69"/><polygon points="-5.102,37.481 -5.001,35.201 -1.793,35.311 -1.895,37.622"/><polygon points="-1.895,37.622 -2.046,41.049 -5.253,40.908 -5.102,37.481"/><polygon points="-13.809,40.073 -15.945,39.979 -14.795,34.867 -13.582,34.908"/><polygon points="-13.133,40.102 -10.174,40.233 -10.418,45.761 -13.365,45.385"/><polygon points="-13.238,42.505 -13.365,45.385 -17.055,44.913 -16.422,42.098"/><polygon points="-16.422,42.098 -15.945,39.979 -13.133,40.102 -13.238,42.505"/><polygon points="-9.337,27.569 -2.482,25.098 0.134,27.745 -1.793,35.311 -9.593,35.045"/><polygon points="-9.431,30.322 -9.593,35.045 -14.795,34.867 -13.49,29.067"/><polygon points="-13.49,29.067 -9.337,27.569 -9.431,30.322"/></g><g fill="#CCCCCC" stroke="#000000" stroke-width="0.292"><polygon points="36.921,34.554 35.122,39.878 22.598,37.151 24.465,29.779"/><polygon points="25.093,27.301 26.281,22.61 32.249,24.769 30.611,29.297"/><polygon points="33.824,32.51 32.096,31.847 33.285,28.559 35.025,29.189"/><polygon points="34.702,24.806 30.695,23.356 31.667,20.479 35.704,21.842"/><polygon points="33.558,14.883 39.837,16.041 39.351,17.479"/><polygon points="30.695,23.356 26.479,21.831 28.476,13.946 33.558,14.883"/><polygon points="24.28,13.173 27.688,13.801 25.839,21.1 22.487,20.251"/><polygon points="22.487,20.251 18.331,19.198 21.952,12.743 24.28,13.173"/><polygon points="25.839,21.1 24.795,25.218 16.179,23.035 18.331,19.198"/><polygon points="18.79,30.809 12.686,29.262 16.179,23.035 20.484,24.125"/><polygon points="19.408,28.37 20.484,24.125 24.795,25.218 23.72,29.463"/><polygon points="23.72,29.463 23.102,31.901 18.79,30.809 19.408,28.37"/><polygon points="16.029,30.109 23.102,31.901 21.815,36.981 14.682,35.427"/><polygon points="11.781,30.876 12.686,29.262 16.029,30.109 15.59,31.841"/><polygon points="15.59,31.841 14.682,35.427 9.821,34.369 11.781,30.876"/></g><g fill="#CCCCCC" stroke="#000000" stroke-width="0.292"><polygon points="-21.503,35.116 -17.192,36.41 -19.024,44.551 -23.539,43.448"/><polygon points="-25.184,37.598 -22.283,38.307 -23.539,43.448 -26.44,42.739"/><polygon points="-26.44,42.739 -29.682,41.947 -28.426,36.806 -25.184,37.598"/><polygon points="-28.426,36.806 -27.569,33.296 -21.503,35.116 -22.283,38.307"/><polygon points="-28.992,39.124 -29.682,41.947 -34.195,40.844 -33.505,38.022"/><polygon points="-34.195,40.844 -36.743,40.222 -34.981,35.826 -33.082,36.29"/><polygon points="-34.981,35.826 -33.281,31.583 -27.569,33.296 -28.569,37.392"/><polygon points="-24.824,21.243 -21.475,23.66 -23.323,28.27 -27.043,26.778"/><polygon points="-27.043,26.778 -30.758,25.289 -28.169,18.83 -24.824,21.243"/><polygon points="-25.486,27.403 -23.323,28.27 -25.278,33.148 -27.519,32.476"/><polygon points="-27.519,32.476 -32.982,30.837 -30.758,25.289 -25.486,27.403"/><polygon points="-21.046,34.418 -25.278,33.148 -23.607,28.978 -19.76,30.133"/><polygon points="-19.76,30.133 -16.031,31.251 -17.016,35.628 -21.046,34.418"/><polygon points="-18.561,25.763 -15.322,28.1 -16.031,31.251 -19.862,30.102"/><polygon points="-22.861,27.118 -21.475,23.66 -18.561,25.763 -19.289,28.19"/><polygon points="-36.8,20.123 -36.216,18.627 -31.43,16.476 -28.837,18.347 -30.553,22.627"/><polygon points="-30.553,22.627 -31.849,25.861 -38.068,23.369 -36.8,20.123"/><polygon points="-31.849,25.861 -33.857,30.871 -40.053,28.452 -38.068,23.369"/><polygon points="-40.053,28.452 -49.699,24.685 -36.216,18.627"/><polygon points="-49.305,29.148 -49.699,24.685 -40.158,28.411 -41.618,32.15"/><polygon points="-46.857,30.104 -41.618,32.15 -44.071,38.432 -48.583,37.329 -48.785,35.043"/><polygon points="-48.785,35.043 -49.305,29.148 -46.857,30.104"/><polygon points="-37.536,29.434 -33.857,30.871 -35.876,35.908 -39.51,34.489"/><polygon points="-40.398,39.329 -44.071,38.432 -42.132,33.465 -38.641,34.829"/><polygon points="-38.641,34.829 -35.876,35.908 -37.528,40.03 -40.398,39.329"/></g><g fill="#CCCCCC" stroke="#000000" stroke-width="0.292"><polygon points="-37.816,-32.382 -35.537,-37.384 -30.978,-35.306 -33.257,-30.305"/><polygon points="-42.855,-29.833 -45.565,-31.069 -44.125,-35.918 -40.777,-34.393"/><polygon points="-40.504,-36.594 -39.352,-39.122 -35.537,-37.384 -36.69,-34.855"/><polygon points="-41.382,-34.668 -44.125,-35.918 -42.718,-40.656 -39.352,-39.122"/><polygon points="-44.41,-24.791 -47.07,-26.003 -45.565,-31.069 -42.239,-29.553"/><polygon points="-43.816,-16.753 -49.102,-19.162 -47.07,-26.003 -40.885,-23.185"/><polygon points="-47.809,-13.679 -50.349,-14.964 -49.102,-19.162 -45.962,-17.731"/><polygon points="-45.164,-12.34 -47.809,-13.679 -45.962,-17.731 -43.267,-16.503"/><polygon points="-41.04,-13.224 -42.141,-10.809 -45.164,-12.34 -44.122,-14.628"/><polygon points="-32.496,-20.814 -27.609,-18.587 -34.554,-13.097 -35.761,-13.647"/><polygon points="-34.554,-13.097 -39.28,-9.361 -42.141,-10.809 -39.973,-15.566"/><polygon points="-33.503,-29.765 -30.978,-35.306 -22.671,-31.521 -24.847,-25.82"/><polygon points="-22.46,-22.656 -27.609,-18.587 -25.598,-23.854"/><polygon points="-19.165,-25.261 -22.46,-22.656 -25.598,-23.854 -24.311,-27.226"/><polygon points="-20.393,-25.73 -24.311,-27.226 -22.671,-31.521 -18.848,-29.779"/><polygon points="-18.848,-29.779 -15.424,-28.218 -19.165,-25.261 -20.393,-25.73"/></g><g fill="#CCCCCC" stroke="#000000" stroke-width="0.292"><polygon points="-27.429,7.3 -31.274,14.914 -37.46,11.693 -33.519,4.127"/><polygon points="-27.74,0.947 -25.243,2.972 -27.429,7.3 -30.276,5.817"/><polygon points="-30.276,5.817 -33.519,4.127 -30.639,-1.404 -27.74,0.947"/><polygon points="-42.509,9.063 -46.613,6.925 -42.373,-2.238 -37.85,0.118"/><polygon points="-34.421,5.858 -37.46,11.693 -42.509,9.063 -39.47,3.229"/><polygon points="-32.769,-3.132 -30.639,-1.404 -32.801,2.747 -35.185,1.506"/><polygon points="-35.185,1.506 -39.065,-0.516 -36.238,-5.945 -32.769,-3.132"/><polygon points="-39.065,-0.516 -42.373,-2.238 -39.452,-8.551 -36.238,-5.945"/><polygon points="-43.62,-10.661 -39.452,-8.551 -43.511,0.22 -47.748,-1.741"/><polygon points="-51.61,-9.09 -50.52,-14.155 -43.62,-10.661 -45.628,-6.321"/><polygon points="-45.628,-6.321 -47.748,-1.741 -52.699,-4.032 -51.61,-9.09"/><polygon points="-45.174,3.816 -46.613,6.925 -49.313,5.519 -47.934,2.539"/><polygon points="-53.498,-0.32 -52.699,-4.032 -46.27,-1.057 -47.826,2.305"/><polygon points="-47.826,2.305 -49.313,5.519 -54.206,2.971 -53.498,-0.32"/><polygon points="-45.071,8.63 -42.011,10.224 -44.865,15.833 -47.955,14.298"/><polygon points="-47.955,14.298 -52.696,11.944 -49.766,6.186 -45.071,8.63"/><polygon points="-52.696,11.944 -55.804,10.4 -54.38,3.782 -49.766,6.186"/><polygon points="-46.781,19.599 -48.693,23.356 -50,23.943 -52.381,18.388 -47.946,16.88"/><polygon points="-47.946,16.88 -44.865,15.833 -46.781,19.599"/><polygon points="-48.455,17.054 -52.381,18.388 -53.505,15.765 -48.94,13.809"/><polygon points="-53.505,15.765 -55.804,10.4 -48.94,13.809"/><polygon points="-41.072,19.932 -47.529,22.833 -45.028,17.918"/><polygon points="-35.833,13.442 -31.635,15.628 -31.676,15.71 -38.562,18.804"/><polygon points="-42.5,19.205 -45.028,17.918 -43.055,14.041 -40.527,15.327"/><polygon points="-40.527,15.327 -37.561,16.837 -38.562,18.804 -41.072,19.932 -42.5,19.205"/><polygon points="-43.055,14.041 -41.301,10.594 -35.833,13.442 -37.561,16.837"/></g><g fill="#CCCCCC" stroke="#000000" stroke-width="0.292"><polygon points="-20.528,-31.423 -23.348,-32.708 -19.801,-41.103 -16.948,-39.897"/><polygon points="-12.825,-32.782 -15.356,-29.067 -20.528,-31.423 -18.874,-35.338"/><polygon points="-14.091,-36.677 -13.37,-38.385 -9.981,-36.954 -11.047,-35.39"/><polygon points="-12.443,-35.981 -11.047,-35.39 -12.825,-32.782 -13.648,-33.13"/><polygon points="-15.361,-42.605 -16.572,-39.739 -19.801,-41.103 -18.59,-43.969"/><polygon points="-14.809,-43.911 -15.361,-42.605 -18.59,-43.969 -18.038,-45.275"/><polygon points="-12.17,-40.703 -11.337,-42.674 -7.257,-40.951 -8.486,-39.147"/><polygon points="-8.486,-39.147 -9.981,-36.954 -13.183,-38.307 -12.17,-40.703"/><polygon points="-6.833,-46.306 -4.473,-45.558 -4.792,-44.568 -7.257,-40.951 -8.817,-41.609"/><polygon points="-8.817,-41.609 -11.409,-42.705 -9.526,-47.16 -6.833,-46.306"/><polygon points="-13.549,-46.893 -12.975,-48.253 -9.526,-47.16 -10.231,-45.492"/><polygon points="-26.027,-38.746 -26.632,-37.418 -29.888,-38.901 -29.273,-40.225"/><polygon points="-27.862,-39.582 -29.273,-40.225 -28.282,-42.362 -26.885,-41.726"/><polygon points="-28.552,-38.293 -26.632,-37.418 -27.844,-34.757 -29.764,-35.632"/><polygon points="-29.764,-35.632 -31.118,-36.249 -29.888,-38.901 -28.552,-38.293"/><polygon points="-25.05,-40.889 -21.452,-39.25 -24.076,-33.04 -27.844,-34.757"/><polygon points="-18.378,-49.966 -17.096,-49.56 -18.244,-46.843 -19.478,-47.364"/><polygon points="-18.244,-46.843 -19.921,-42.874 -23.08,-44.313 -21.441,-48.193"/><polygon points="-32.294,-46.183 -31.163,-48.619 -27.129,-46.747 -28.259,-44.311"/><polygon points="-28.259,-44.311 -29.198,-42.289 -33.232,-44.161 -32.294,-46.183"/><polygon points="-40.105,-40.345 -41.696,-41.07 -40.477,-43.698 -38.891,-42.962"/><polygon points="-38.891,-42.962 -37.75,-42.433 -38.961,-39.823 -40.105,-40.345"/><polygon points="-35.959,-40.031 -36.563,-38.73 -38.961,-39.823 -38.35,-41.14"/><polygon points="-41.696,-41.07 -43.714,-41.989 -39.569,-45.655"/><polygon points="-30.729,-43 -29.198,-42.289 -30.732,-38.981 -32.264,-39.692"/><polygon points="-32.721,-39.904 -30.732,-38.981 -31.846,-36.581 -33.841,-37.49"/><polygon points="-33.841,-37.49 -36.563,-38.73 -35.434,-41.162 -32.721,-39.904"/><polygon points="-9.392,-66.661 -4.36,-64.777 -8.618,-56.967 -12.532,-58.852"/><polygon points="-4.707,-58.532 -0.892,-56.696 -1.852,-53.71 -6.055,-55.733"/><polygon points="-5.037,-57.847 -6.055,-55.733 -7.896,-56.62 -6.771,-58.682"/><polygon points="-6.771,-58.682 -6.407,-59.351 -4.707,-58.532 -5.037,-57.847"/><polygon points="0.146,-59.922 -0.892,-56.696 -6.407,-59.351 -4.798,-62.302"/><polygon points="-4.798,-62.302 -3.603,-64.493 1.055,-62.749 0.146,-59.922"/><polygon points="-17.227,-58.002 -16.478,-59.864 -12.659,-58.025 -13.302,-56.424"/><polygon points="-12.272,-49.997 -12.674,-48.997 -15.88,-50.014 -15.384,-51.248"/><polygon points="-12.659,-58.025 -6.648,-55.131"/><polygon points="-3.458,-48.715 -4.228,-46.32 -9.517,-47.997 -8.425,-50.713"/><polygon points="-8.425,-50.713 -6.648,-55.131 -2.099,-52.941 -3.458,-48.715"/></g><g fill="#CCCCCC" stroke="#000000" stroke-width="0.292"><polygon points="62.035,1.63 64.231,0.479 66.893,3.607 63.894,5.178"/><polygon points="58.748,3.352 57.352,-0.239 62.613,-1.421 64.231,0.479"/><polygon points="52.643,0.819 54.866,0.32 56.422,4.532 54.303,5.315"/><polygon points="52.094,-9.89 54.109,-11.412 59.204,-5.426 56.11,-3.485"/><polygon points="49.973,-8.289 52.094,-9.89 54.292,-6.385 52.049,-4.979"/><polygon points="52.049,-4.979 50.403,-3.947 48.417,-7.113 49.973,-8.289"/><polygon points="52.222,-1.047 49.388,0.731 46.912,-5.976 48.417,-7.113"/><polygon points="48.937,1.82 50.142,5.083 42.841,7.779 42.398,4.235"/><polygon points="46.96,-3.534 48.937,1.82 42.398,4.235 41.619,-1.979"/><polygon points="41.619,-1.979 46.245,-5.472 46.96,-3.534"/><polygon points="47.777,11.145 43.256,11.091 42.841,7.779 46.091,6.579"/><polygon points="48.583,13.2 43.832,15.689 43.256,11.091 47.505,11.142"/><polygon points="46.317,-10.948 46.823,-6.911 40.943,-7.379 40.586,-10.23"/><polygon points="43.417,-13.801 46.004,-13.45 46.317,-10.948 43.814,-10.634"/><polygon points="43.814,-10.634 40.586,-10.23 40.082,-14.253 43.417,-13.801"/><polygon points="43.559,-7.171 46.823,-6.911 44.869,-5.436"/><polygon points="44.869,-5.436 41.505,-2.894 40.943,-7.379 43.559,-7.171"/><polygon points="46.004,-13.45 53.205,-12.474 53.59,-12.023 46.823,-6.911"/></g><g fill="#CCCCCC" stroke="#000000" stroke-width="0.292"><polygon points="30.981,-22.079 31.146,-20.444 27.427,-20.069 27.262,-21.704"/><polygon points="27.262,-21.704 26.891,-25.385 30.61,-25.759 30.981,-22.079"/><polygon points="35.129,-20.845 35.662,-15.544 28.043,-13.949 27.427,-20.069"/><polygon points="38.534,-26.557 41.81,-26.887 41.337,-21.71 39.045,-21.48"/><polygon points="37.277,-15.882 35.662,-15.544 35.105,-21.083 36.737,-21.247"/><polygon points="41.048,-18.543 40.832,-16.17 39.507,-16.349 37.277,-15.882 37.049,-18.141"/><polygon points="40.018,-21.578 41.337,-21.71 41.048,-18.543"/><polygon points="29.424,-25.64 26.891,-25.385 26.462,-29.65 28.994,-29.905"/><polygon points="26.462,-29.65 26.106,-33.188 32.125,-33.793 32.481,-30.256"/><polygon points="30.066,-33.586 26.106,-33.188 25.781,-36.419 29.776,-36.471"/><polygon points="36.88,-34.517 36.674,-36.561 42.699,-36.64 42.512,-34.591"/><polygon points="38.455,-34.538 42.512,-34.591 42.121,-30.306 38.511,-30.258"/><polygon points="39.691,-30.274 42.121,-30.306 41.81,-26.887 40.05,-26.71"/><polygon points="44.43,-15.682 41.625,-16.062 42.453,-25.139 45.942,-24.544"/><polygon points="45.501,-21.958 45.942,-24.544 48.126,-24.171 47.685,-21.586"/><polygon points="48.126,-24.171 51.265,-23.636 50.554,-19.467 47.415,-20.002"/><polygon points="48.374,-17.988 50.247,-17.668 49.784,-14.956 47.901,-15.211"/><polygon points="47.901,-15.211 46.723,-15.371 47.203,-18.187 48.374,-17.988"/><polygon points="46.723,-15.371 44.43,-15.682 45.231,-20.375 47.51,-19.986"/><polygon points="50.347,-18.255 51.265,-23.636 56.113,-22.809 54.536,-17.54"/><polygon points="51.36,-14.742 49.784,-14.956 50.347,-18.255 51.913,-17.987"/><polygon points="51.913,-17.987 54.536,-17.54 53.608,-14.438 51.36,-14.742"/><polygon points="52.485,-24.24 49.472,-24.753 49.404,-28.874 52.424,-28.913"/><polygon points="54.282,-23.933 52.485,-24.24 52.424,-28.913 54.217,-28.937"/><polygon points="56.399,-28.965 57.961,-28.985 57.172,-26.349 56.433,-26.339"/><polygon points="57.172,-26.349 56.344,-23.582 54.282,-23.933 54.251,-26.311"/><polygon points="48.541,-32.676 48.599,-29.176 42.815,-29.101 43.135,-32.606"/><polygon points="45.886,-25.365 42.526,-25.938 42.815,-29.101 45.836,-29.14"/><polygon points="45.874,-26.264 45.836,-29.14 48.599,-29.176 48.647,-26.3"/><polygon points="48.647,-26.3 48.67,-24.89 45.886,-25.365 45.874,-26.264"/><polygon points="46.32,-49.013 43.152,-46.77 40.103,-51.078 43.167,-53.468"/><polygon points="45.202,-53.609 47.743,-50.019 46.32,-49.013 43.167,-53.468"/><polygon points="43.167,-53.468 44.542,-54.541 45.202,-53.609"/><polygon points="35.127,-47.197 40.103,-51.078 43.152,-46.77 38.006,-43.129"/><polygon points="38.006,-43.129 33.537,-39.966 30.805,-43.826 35.127,-47.197"/><polygon points="45.152,-37.472 43.968,-37.456 46.792,-41.223 48.014,-39.497"/><polygon points="48.014,-39.497 49.408,-37.527 45.152,-37.472"/><polygon points="42.042,-40.179 43.968,-37.456 38.087,-37.38"/><polygon points="39.433,-38.333 38.087,-37.38 36.582,-37.36"/><polygon points="36.582,-37.36 35.392,-37.344 33.537,-39.966 36.695,-42.201 39.433,-38.333"/><polygon points="46.213,-48.937 47.743,-50.019 49.377,-47.71 47.848,-46.627"/><polygon points="46.937,-45.983 49.377,-47.71 52.037,-43.952 49.597,-42.225"/><polygon points="35.392,-37.344 25.7,-37.218 25.455,-39.653 30.805,-43.826"/></g><g fill="#CCCCCC" stroke="#000000" stroke-width="0.292"><polygon points="-15.81,50.951 -16.203,55.202 -18.645,54.976 -18.251,50.725"/><polygon points="-15.613,48.825 -15.81,50.951 -18.251,50.725 -18.055,48.599"/><polygon points="-18.055,48.599 -17.78,45.627 -15.346,45.938 -15.613,48.825"/><polygon points="-11.848,51.056 -9.38,51.284 -10.429,55.736 -12.265,55.566"/><polygon points="-15.596,48.637 -15.346,45.938 -11.551,46.423 -11.894,49.11"/><polygon points="-11.551,46.423 -8.332,46.834 -9.38,51.284 -12.139,51.029"/><polygon points="0.786,65.192 13.23,64.736 14.098,71.707 0.499,71.04"/><polygon points="4.25,54.555 3.031,48.285 11.314,49.343 11.845,53.609"/><polygon points="4.698,56.854 4.25,54.555 8.722,53.998 9.011,56.317"/><polygon points="7.369,58.87 5.143,59.147 4.698,56.854 7.081,56.557"/><polygon points="8.947,55.806 8.722,53.998 11.845,53.609 12.07,55.418"/><polygon points="12.07,55.418 12.422,58.241 9.299,58.629 8.947,55.806"/><polygon points="8.908,64.094 6.125,64.196 5.143,59.147 8.245,58.761"/><polygon points="12.849,61.671 13.131,63.939 8.908,64.094 8.672,62.191"/><polygon points="9.863,58.559 12.422,58.241 12.849,61.671 10.29,61.99"/><polygon points="0.772,64.392 -1.638,64.48 -3.04,59.686 0.595,59.553"/><polygon points="4.803,61.586 5.316,64.226 2.704,64.321 2.606,61.667"/><polygon points="-0.795,59.604 -3.04,59.686 -1.802,53.842"/><polygon points="-1.802,53.842 3.261,53.657 4.381,59.414 -0.795,59.604"/><polygon points="0.385,49.663 2.469,49.587 3.261,53.657 0.534,53.757"/><polygon points="0.534,53.757 -1.802,53.842 -0.927,49.711 0.385,49.663"/><polygon points="-0.927,49.711 -0.528,47.831 2.196,48.179 2.469,49.587"/><polygon points="-8.229,49.886 -7.534,46.936 -4.868,47.276 -5.25,50.266"/><polygon points="-6.876,50.059 -5.25,50.266 -5.564,52.72 -7.243,52.931"/><polygon points="-7.243,52.931 -8.998,53.15 -8.229,49.886 -6.876,50.059"/><polygon points="-4.868,47.276 -1.324,47.729 -2.295,52.311 -5.564,52.72"/><polygon points="-3.48,57.901 -3.811,59.467 -7.436,58.389 -7.167,57.12"/></g><g fill="#CCCCCC" stroke="#000000" stroke-width="0.292"><polygon points="7.515,-67.809 9.504,-70.244 13.967,-65.817 12.675,-62.689"/><polygon points="12.675,-62.689 12.164,-61.452 7.752,-59.542 3.922,-63.411 7.515,-67.809"/><polygon points="12.78,-60.847 14.581,-65.208 20.418,-59.418 13.326,-53.911 8.356,-58.932"/><polygon points="16.314,-71.794 19.646,-69.072 16.143,-64.785 13.075,-67.828"/><polygon points="14.075,-69.052 13.075,-67.828 10.012,-70.866 10.75,-71.769"/><polygon points="13.493,-71.436 12.558,-70.292 10.75,-71.769 11.684,-72.913"/><polygon points="11.684,-72.913 12.989,-74.51 14.797,-73.033 13.493,-71.436"/><polygon points="17.524,-73.076 19.307,-75.259 22.556,-72.635 20.758,-70.434"/><polygon points="17.716,-73.311 16.412,-71.714 12.989,-74.51 14.293,-76.107"/><polygon points="14.293,-76.107 15.869,-78.036 19.307,-75.259 17.716,-73.311"/><polygon points="19.713,-61.244 16.143,-64.785 18.291,-67.415 22.167,-64.248"/><polygon points="20.799,-70.484 22.556,-72.635 27.134,-68.938 25.356,-66.762"/><polygon points="26.294,-67.91 27.134,-68.938 29.852,-66.743 28.76,-65.895"/><polygon points="38.387,-52.277 33.596,-48.539 28.954,-53.404 32.847,-57.522"/><polygon points="37.268,-56.772 36.104,-55.54 33.396,-58.103 34.559,-59.333"/><polygon points="37.936,-53.805 36.104,-55.54 38.089,-57.64 39.923,-55.906"/><polygon points="39.923,-55.906 41.332,-54.574 39.025,-52.774 37.936,-53.805"/><polygon points="38.089,-57.64 39.402,-59.029 43.157,-55.997 41.332,-54.574"/><polygon points="30.248,-61.502 32.891,-58.733 28.401,-53.983 25.526,-56.995"/><polygon points="25.526,-56.995 22.579,-60.083 27.762,-64.107 30.248,-61.502"/><polygon points="31.137,-62.968 32.604,-64.52 35.869,-61.883 34.177,-60.094"/><polygon points="34.177,-60.094 32.891,-58.733 29.999,-61.763 31.137,-62.968"/><polygon points="20.412,-53.605 17.783,-56.359 21.944,-59.59 24.203,-57.223"/><polygon points="20.128,-53.902 23.72,-50.138 20.296,-46.87 16.635,-50.568"/><polygon points="23.574,-49.998 27.511,-53.756 32.962,-48.045 28.649,-44.68"/><polygon points="23.381,-46.337 24.35,-45.322 23.053,-44.084 22.066,-45.081"/><polygon points="22.066,-45.081 20.296,-46.87 21.644,-48.157 23.381,-46.337"/><polygon points="26.279,-47.163 28.649,-44.68 25.158,-41.957 23.053,-44.084"/><polygon points="2.96,-54.425 1.087,-56.318 3.009,-62.293 3.413,-62.788 7.37,-58.791"/><polygon points="6.088,-53.269 3.962,-55.417 7.37,-58.791 9.497,-56.642"/><polygon points="9.497,-56.642 10.698,-55.429 7.631,-51.71 6.088,-53.269"/><polygon points="10.698,-55.429 13.006,-53.097 6.73,-50.617"/><polygon points="-2.019,-46.658 -0.215,-52.267 4.834,-49.868 2.757,-44.728"/><polygon points="2.757,-44.728 1.561,-41.767 -2.859,-44.046 -2.019,-46.658"/><polygon points="-0.215,-52.267 1.087,-56.318 2.354,-55.038"/><polygon points="4.339,-53.033 6.73,-50.617 4.834,-49.868 2.339,-51.053"/><polygon points="19.708,-43.919 20.291,-39.908 16.812,-39.402 16.229,-43.413"/><polygon points="16.422,-42.086 16.812,-39.402 11.461,-38.624 11.071,-41.308"/><polygon points="16.948,-49.115 19.297,-46.741 16.682,-46.164"/><polygon points="19.883,-42.711 19.297,-46.741 21.602,-44.412"/><polygon points="20.156,-40.832 19.883,-42.711 21.602,-44.412 22.677,-43.327"/><polygon points="22.677,-43.327 24.523,-41.462 23.044,-40.308 20.291,-39.908 20.156,-40.832"/><polygon points="11.461,-38.624 8.495,-38.193 8.654,-50.517 9.674,-50.92"/><polygon points="3.081,-43.394 5.447,-49.25 8.654,-50.517 8.561,-43.323"/><polygon points="6.836,-43.346 8.561,-43.323 8.495,-38.193 6.781,-39.077"/><polygon points="6.781,-39.077 2.275,-41.399 3.081,-43.394 6.836,-43.346"/></g><g fill="#CCCCCC" stroke="#000000" stroke-width="0.292"><polygon points="43.501,55.205 45.528,54.385 48.768,58.128 45.259,59.549"/><polygon points="44.135,56.772 45.259,59.549 42.029,60.856 40.905,58.079"/><polygon points="42.029,60.856 40.324,61.546 38.567,57.202 40.271,56.512"/><polygon points="38.567,57.202 36.793,52.82 43.071,51.546 45.528,54.385"/><polygon points="39.767,60.169 40.324,61.546 36.102,63.254 35.545,61.878"/><polygon points="36.077,57.305 33.786,58.232 31.99,53.795 34.454,53.294"/><polygon points="29.258,55.701 30.775,59.451 29.007,60.166 26.701,56.735"/><polygon points="26.701,56.735 25.597,55.092 28.752,54.452 29.258,55.701"/><polygon points="36.566,50.132 36.94,51.974 33.547,52.662 33.173,50.821"/><polygon points="33.547,52.662 32.131,52.95 31.188,48.302 32.603,48.015"/><polygon points="35.997,47.326 38.907,46.735 38.702,51.616 36.94,51.974"/><polygon points="38.907,46.735 42.47,50.851 38.702,51.616"/><polygon points="33.089,41.482 34.655,41.823 35.864,43.219 36.081,44.289 33.755,44.762"/><polygon points="30.093,42.91 29.652,40.734 33.089,41.482 33.249,42.27"/><polygon points="35.864,43.219 38.907,46.735 36.669,47.189"/><polygon points="25.8,50.503 23.41,50.988 22.909,47.729 25.145,47.275"/><polygon points="25.241,50.616 27.548,50.148 28.275,53.732 25.968,54.201"/><polygon points="30.035,50.299 31.531,49.995 32.131,52.95 30.634,53.253"/><polygon points="22.229,43.3 21.565,38.973 29.652,40.734"/><polygon points="25.078,43.983 25.722,47.158 22.909,47.729 22.417,44.523"/><polygon points="22.417,44.523 22.229,43.3 24.761,42.424 25.078,43.983"/><polygon points="29.357,62.122 31.398,65.158 27.461,66.751 26.118,63.433"/><polygon points="23.091,63.316 22.534,60.735 24.746,60.042 25.651,62.28"/><polygon points="26.842,65.222 27.461,66.751 24.124,68.101 23.771,66.465"/><polygon points="23.771,66.465 23.091,63.316 25.651,62.28 26.842,65.222"/><polygon points="22.365,59.95 20.882,53.079 22.773,52.113 22.815,52.386 26.935,58.517"/><polygon points="17.124,58.097 16.444,54.946 18.249,54.425 20.145,53.456 20.968,57.268"/><polygon points="20.968,57.268 21.243,58.543 17.399,59.373 17.124,58.097"/><polygon points="17.399,59.373 14.652,59.965 14.111,55.618 16.444,54.946"/><polygon points="21.243,58.543 22.015,62.12 19.294,61.97 15.106,63.611 14.652,59.965"/><polygon points="19.454,69.991 16.07,71.36 15.208,64.43 17.001,63.728"/><polygon points="17.001,63.728 19.424,62.779 22.19,62.931 23.371,68.406 19.454,69.991"/><polygon points="21.513,43.909 22.048,47.388 18.967,45.979 20.191,43.304"/><polygon points="20.191,43.304 21.111,41.291 21.513,43.909"/><polygon points="15.284,41.077 16.728,37.92 20.728,38.791 21.111,41.291 20.184,43.318"/><polygon points="16.834,41.786 20.184,43.318 18.967,45.979 15.617,44.447"/><polygon points="15.617,44.447 14.067,43.738 15.284,41.077 16.834,41.786"/><polygon points="14.067,43.738 11.759,42.683 10.252,36.51 16.728,37.92"/><polygon points="19.052,46.898 22.193,48.334 22.412,49.762 19.559,50.2"/><polygon points="16.745,50.632 13.551,51.122 13.272,48.883 16.316,47.838"/><polygon points="13.272,48.883 12,43.673 19.052,46.898"/><polygon points="17.124,50.573 22.412,49.762 22.645,51.28 17.954,53.677"/><polygon points="14.825,50.926 17.124,50.573 17.954,53.677 15.731,54.318"/><polygon points="15.731,54.318 14.011,54.814 13.551,51.122 14.825,50.926"/></g><g stroke="#888888" stroke-width="0.292" stroke-linecap="butt"/><g/><g stroke="#000000" stroke-width="0.8" stroke-linecap="butt"><polyline points="-55.962,15.109 -63.316,18.26"/><polyline points="-53.599,20.624 -60.952,23.775"/></g><g stroke="#000000" stroke-width="0.8" stroke-linecap="butt"><polyline points="-53.192,-11.244 -61.013,-12.927"/><polyline points="-54.455,-5.378 -62.276,-7.061"/><polyline points="-55.717,0.487 -63.538,-1.196"/><polyline points="-56.979,6.353 -64.8,4.67"/></g><g stroke="#000000" stroke-width="0.8" stroke-linecap="butt"><polyline points="-45.797,-37.314 -53.466,-39.592"/><polyline points="-47.505,-31.562 -55.174,-33.84"/><polyline points="-49.213,-25.811 -56.882,-28.089"/><polyline points="-50.922,-20.059 -58.591,-22.337"/></g><g/><g stroke="#888888" stroke-width="0.292" stroke-linecap="butt"><g fill="#CCCCCC" stroke="#000000" stroke-width="0.292"><polygon points="70.783,-6.597 71.75,-7.118 72.398,-5.917 73.482,-6.502 74.482,-7.041 75.009,-6.063 74.009,-5.524 72.925,-4.939 73.469,-3.929 72.503,-3.408 71.958,-4.418 71.431,-5.396"/></g></g><g/><g stroke="#888888" stroke-width="0.292" stroke-linecap="butt"/><g stroke="#888888" stroke-width="0.292" stroke-linecap="butt"/><g stroke="#888888" stroke-width="0.292" stroke-linecap="butt"/><g/><g/><g stroke="#888888" stroke-width="0.292" stroke-linecap="butt"/><g stroke="#888888" stroke-width="0.292" stroke-linecap="butt"><g fill="#CCCCCC" stroke="#000000" stroke-width="0.292"><polygon points="32.776,93.842 33.026,94.79 33.418,96.277 31.6,96.756 30.074,97.159 29.682,95.673 29.431,94.725 29.111,93.512 30.637,93.11 30.957,94.322"/></g></g><g/><g/><g/><g/><g/><g stroke="#888888" stroke-width="0.292" stroke-linecap="butt"><g fill="#CCCCCC" stroke="#000000" stroke-width="0.292"><polygon points="128.892,4.921 130.89,4.361 131.324,5.908 131.813,7.65 129.816,8.211 128.55,8.566 128.061,6.824 129.327,6.468"/></g></g><g stroke="#888888" stroke-width="0.292" stroke-linecap="butt"/><g/><g/><g/><g stroke="#888888" stroke-width="0.292" stroke-linecap="butt"><g fill="#CCCCCC" stroke="#000000" stroke-width="0.292"><polygon points="118.486,67.759 119.978,68.18 120.808,68.414 122.01,68.753 121.669,69.964 120.467,69.626 119.637,69.392 119.084,71.355 117.591,70.934 118.144,68.971"/></g></g><g/><g/><g stroke="#888888" stroke-width="0.292" stroke-linecap="butt"><g fill="#CCCCCC" stroke="#000000" stroke-width="0.292"><polygon points="107.717,-44.313 108.765,-44.624 109.23,-43.057 109.734,-41.356 108.685,-41.045 106.566,-40.417 106.061,-42.118 108.181,-42.747"/></g></g><g/><g/><g/><g/><g/><g stroke="#888888" stroke-width="0.292" stroke-linecap="butt"/><g/><g/><g/><g/><g/><g/><g stroke="#888888" stroke-width="0.292" stroke-linecap="butt"><g fill="#CCCCCC" stroke="#000000" stroke-width="0.292"><polygon points="94.017,114.802 94.811,115.411 94.202,116.205 93.333,117.336 92.69,118.175 91.896,117.566 90.693,116.642 89.782,115.944 90.426,115.105 91.336,115.804 92.204,114.672 93.408,115.596"/></g></g><g stroke="#888888" stroke-width="0.292" stroke-linecap="butt"><g fill="#CCCCCC" stroke="#000000" stroke-width="0.292"><polygon points="190.981,-27.125 192.361,-27.186 192.45,-25.162 193.37,-25.203 193.28,-27.227 194.722,-27.291 194.811,-25.267 194.869,-23.948 193.428,-23.885 192.508,-23.844 191.129,-23.783 191.071,-25.101"/></g></g><g stroke="#888888" stroke-width="0.292" stroke-linecap="butt"/><g/><g/><g/><g/><g/><g/><g stroke="#888888" stroke-width="0.292" stroke-linecap="butt"/><g/><g/><g/><g/><g/><g/><g/><g/><g/><g stroke="#888888" stroke-width="0.292" stroke-linecap="butt"><g fill="#CCCCCC" stroke="#000000" stroke-width="0.292"><polygon points="202.284,89.354 203.739,89.905 203.316,91.024 204.928,91.634 204.549,92.633 202.937,92.023 202.476,93.241 201.022,92.69 201.483,91.472 201.861,90.473"/></g></g><g/><g/><g/><g/><g/><g/><g/><g/><g/><g/><g/><g/><g/><g/><g/><g/><g/><g/><g/><g/><g/><g/><g/><g/><g/><g/><g/><g/><g/><g/><g/><g/><g/><g/><g/><g/><g/><g/><g/><g/><g/><g/><g/><g/><g/><g/><g/><g/><g/><g/><g/><g/><g/><g/><g/><g/><g/><g/><g/><g/><g/><g/></g></svg>